{"title":"ALLAH DUHAI HAI (RACE 2) 4K MASTERED [PhYsIcIaN].mp4","uid":11192156,"size":746734481,"categoryP":"video","categoryS":"other","magnet":"?xt=urn:btih:fd3b61c735b0104d3ae296dfb7ca231ba3f72499&amp;dn=ALLAH+DUHAI+HAI+%28RACE+2%29+4K+MASTERED+%5BPhYsIcIaN%5D.mp4&amp;tr=udp%3A%2F%2Ftracker.openbittorrent.com%3A80&amp;tr=udp%3A%2F%2Fopen.demonii.com%3A1337&amp;tr=udp%3A%2F%2Ftracker.coppersurfer.tk%3A6969&amp;tr=udp%3A%2F%2Fexodus.desync.com%3A6969","seeders":0,"leechers":1,"uploader":"physician","files":1,"time":1413012258,"description":"General\nComplete name                            : D:SONGSVIDEOTRUE HD4KALLAH DUHAI HAI (RACE 2) 4K MASTERED [PhYsIcIaN].mp4\nFormat                                   : MPEG-4\nFormat profile                           : Base Media / Version 2\nCodec ID                                 : mp42\nFile size                                : 712 MiB\nDuration                                 : 3mn 53s\nOverall bit rate mode                    : Variable\nOverall bit rate                         : 25.5 Mbps\nEncoded date                             : UTC 2014-10-10 15:51:20\nTagged date                              : UTC 2014-10-10 15:52:04\nÂ©TIM                                     : 00:00:00:00\nÂ©TSC                                     : 24000\nÂ©TSZ                                     : 1001\n\nVideo\nID                                       : 1\nFormat                                   : AVC\nFormat/Info                              : Advanced Video Codec\nFormat profile                           : &lt;a class=&quot;__cf_email__&quot; href=&quot;/cdn-cgi/l/email-protection&quot; data-cfemail=&quot;bdf0dcd4d3fdf188938c&quot;&gt;[email&amp;#160;protected]&lt;/a&gt;&lt;script cf-hash='f9e31' type=&quot;text/javascript&quot;&gt;\n/* &lt;![CDATA[ */!function(){try{var t=&quot;currentScript&quot;in document?document.currentScript:function(){for(var t=document.getElementsByTagName(&quot;script&quot;),e=t.length;e--;)if(t[e].getAttribute(&quot;cf-hash&quot;))return t[e]}();if(t&amp;&amp;t.previousSibling){var e,r,n,i,c=t.previousSibling,a=c.getAttribute(&quot;data-cfemail&quot;);if(a){for(e=&quot;&quot;,r=parseInt(a.substr(0,2),16),n=2;a.length-n;n+=2)i=parseInt(a.substr(n,2),16)^r,e+=String.fromCharCode(i);e=document.createTextNode(e),c.parentNode.replaceChild(e,c)}}}catch(u){}}();/* ]]&gt; */&lt;/script&gt;\nFormat settings, CABAC                   : Yes\nFormat settings, ReFrames                : 3 frames\nCodec ID                                 : avc1\nCodec ID/Info                            : Advanced Video Coding\nDuration                                 : 3mn 53s\nBit rate mode                            : Variable\nBit rate                                 : 25.0 Mbps\nWidth                                    : 3 840 pixels\nHeight                                   : 2 160 pixels\nDisplay aspect ratio                     : 16:9\nFrame rate mode                          : Constant\nFrame rate                               : 23.976 fps\nStandard                                 : NTSC\nColor space                              : YUV\nChroma subsampling                       : 4:2:0\nBit depth                                : 8 bits\nScan type                                : Progressive\nBits/(Pixel*Frame)                       : 0.126\nStream size                              : 698 MiB (98%)\nLanguage                                 : English\nEncoded date                             : UTC 2014-10-10 15:51:20\nTagged date                              : UTC 2014-10-10 15:51:20\n\nAudio\nID                                       : 2\nFormat                                   : AAC\nFormat/Info                              : Advanced Audio Codec\nFormat profile                           : LC\nCodec ID                                 : 40\nDuration                                 : 3mn 53s\nSource duration                          : 3mn 53s\nBit rate mode                            : Variable\nBit rate                                 : 509 Kbps\nMaximum bit rate                         : 725 Kbps\nChannel(s)                               : 6 channels\nChannel positions                        : Front: L C R, Side: L R, LFE\nSampling rate                            : 48.0 KHz\nCompression mode                         : Lossy\nStream size                              : 14.2 MiB (2%)\nSource stream size                       : 14.2 MiB (2%)\nLanguage                                 : English\nEncoded date                             : UTC 2014-10-10 15:51:20\nTagged date                              : UTC 2014-10-10 15:51:20\n","torrent":{"xt":"urn:btih:fd3b61c735b0104d3ae296dfb7ca231ba3f72499","amp;dn":"ALLAH+DUHAI+HAI+%28RACE+2%29+4K+MASTERED+%5BPhYsIcIaN%5D.mp4","amp;tr":["udp%3A%2F%2Ftracker.openbittorrent.com%3A80","udp%3A%2F%2Fopen.demonii.com%3A1337","udp%3A%2F%2Ftracker.coppersurfer.tk%3A6969","udp%3A%2F%2Fexodus.desync.com%3A6969"],"infoHash":"fd3b61c735b0104d3ae296dfb7ca231ba3f72499","infoHashBuffer":{"type":"Buffer","data":[253,59,97,199,53,176,16,77,58,226,150,223,183,202,35,27,163,247,36,153]},"announce":[],"urlList":[]}}